<svg preserveAspectRatio="none" width="100%" height="100%" overflow="visible" style="display: block;" viewBox="0 0 20 20" fill="none" xmlns="http://www.w3.org/2000/svg">
<g id="Icon">
<path id="Vector" d="M13.3333 4.16667C13.7936 4.16667 14.1667 3.79357 14.1667 3.33333C14.1667 2.8731 13.7936 2.5 13.3333 2.5C12.8731 2.5 12.5 2.8731 12.5 3.33333C12.5 3.79357 12.8731 4.16667 13.3333 4.16667Z" stroke="var(--stroke-0, #14B8A6)" stroke-width="1.66667" stroke-linecap="round" stroke-linejoin="round"/>
<path id="Vector_2" d="M15 15.8333L15.8333 10L10.8333 10.8333" stroke="var(--stroke-0, #14B8A6)" stroke-width="1.66667" stroke-linecap="round" stroke-linejoin="round"/>
<path id="Vector_3" d="M4.16667 6.66667L6.66667 4.16667L11.25 6.66667L9.28333 9.58333" stroke="var(--stroke-0, #14B8A6)" stroke-width="1.66667" stroke-linecap="round" stroke-linejoin="round"/>
<path id="Vector_4" d="M3.53333 12.0833C3.2982 12.8526 3.29073 13.6734 3.51184 14.4468C3.73295 15.2201 4.17319 15.913 4.7794 16.4416C5.38561 16.9703 6.13188 17.3122 6.92813 17.4261C7.72439 17.5399 8.53658 17.4209 9.26667 17.0833" stroke="var(--stroke-0, #14B8A6)" stroke-width="1.66667" stroke-linecap="round" stroke-linejoin="round"/>
<path id="Vector_5" d="M11.4667 14.5833C11.7018 13.8141 11.7093 12.9933 11.4882 12.2199C11.267 11.4465 10.8268 10.7537 10.2206 10.225C9.61439 9.69637 8.86812 9.35446 8.07187 9.24059C7.27561 9.12672 6.46342 9.24576 5.73333 9.58333" stroke="var(--stroke-0, #14B8A6)" stroke-width="1.66667" stroke-linecap="round" stroke-linejoin="round"/>
</g>
</svg>
