<svg preserveAspectRatio="none" width="100%" height="100%" overflow="visible" style="display: block;" viewBox="0 0 20 20" fill="none" xmlns="http://www.w3.org/2000/svg">
<g id="Icon">
<path id="Vector" d="M3.33333 2.5H7.5C8.16304 2.5 8.79893 2.76339 9.26777 3.23223C9.73661 3.70107 10 4.33696 10 5V17.5C10 16.9477 9.78055 16.418 9.39016 16.0276C8.99978 15.6372 8.47009 15.4178 7.91778 15.4178H3.33333V2.5Z" stroke="var(--stroke-0, #22C55E)" stroke-width="1.66667" stroke-linecap="round" stroke-linejoin="round"/>
<path id="Vector_2" d="M16.6667 2.5H12.5C11.8369 2.5 11.2011 2.76339 10.7322 3.23223C10.2634 3.70107 10 4.33696 10 5V17.5C10 16.9477 10.2194 16.418 10.6098 16.0276C11.0002 15.6372 11.5299 15.4178 12.0822 15.4178H16.6667V2.5Z" stroke="var(--stroke-0, #22C55E)" stroke-width="1.66667" stroke-linecap="round" stroke-linejoin="round"/>
</g>
</svg>
